<svg width="44" height="41" viewBox="0 0 44 41" fill="none" xmlns="http://www.w3.org/2000/svg">
<path d="M21.7482 12.4929C19.5638 12.4929 17.4688 13.3097 15.9241 14.7636C14.3795 16.2174 13.5117 18.1893 13.5117 20.2454C13.5117 22.3014 14.3795 24.2733 15.9241 25.7271C17.4688 27.181 19.5638 27.9978 21.7482 27.9978C23.9327 27.9978 26.0277 27.181 27.5723 25.7271C29.1169 24.2733 29.9847 22.3014 29.9847 20.2454C29.9847 18.1893 29.1169 16.2174 27.5723 14.7636C26.0277 13.3097 23.9327 12.4929 21.7482 12.4929ZM21.7482 25.2801C20.3291 25.2801 18.9681 24.7495 17.9646 23.8049C16.9611 22.8604 16.3973 21.5794 16.3973 20.2437C16.3973 18.9079 16.9611 17.6269 17.9646 16.6824C18.9681 15.7379 20.3291 15.2073 21.7482 15.2073C23.1674 15.2073 24.5284 15.7379 25.5319 16.6824C26.5353 17.6269 27.0991 18.9079 27.0991 20.2437C27.0991 21.5794 26.5353 22.8604 25.5319 23.8049C24.5284 24.7495 23.1674 25.2801 21.7482 25.2801Z" fill="white"/>
<path d="M30.3107 14.0153C31.3712 14.0153 32.2309 13.2061 32.2309 12.208C32.2309 11.2098 31.3712 10.4006 30.3107 10.4006C29.2502 10.4006 28.3905 11.2098 28.3905 12.208C28.3905 13.2061 29.2502 14.0153 30.3107 14.0153Z" fill="white"/>
<path d="M36.9494 10.3705C36.5371 9.36821 35.9069 8.45801 35.0993 7.69815C34.2917 6.93829 33.3244 6.34552 32.2594 5.95778C31.0131 5.51744 29.6965 5.27934 28.3656 5.25362C26.6502 5.1832 26.1069 5.16309 21.7571 5.16309C17.4073 5.16309 16.8498 5.16309 15.1487 5.25362C13.8188 5.27803 12.5031 5.51617 11.2584 5.95778C10.1931 6.34507 9.22561 6.93768 8.41794 7.69759C7.61026 8.45751 6.98028 9.36795 6.5684 10.3705C6.10048 11.5434 5.84809 12.7828 5.82206 14.0355C5.74547 15.6483 5.72231 16.1597 5.72231 20.2555C5.72231 24.3497 5.72231 24.8711 5.82206 26.4756C5.84878 27.7296 6.09994 28.9669 6.5684 30.1422C6.98144 31.1444 7.61203 32.0545 8.4199 32.8143C9.22777 33.5741 10.1951 34.1669 11.2602 34.5549C12.5025 35.013 13.8188 35.2681 15.1522 35.3094C16.8676 35.3798 17.4109 35.4016 21.7607 35.4016C26.1105 35.4016 26.668 35.4016 28.3691 35.3094C29.6999 35.2839 31.0165 35.0464 32.2629 34.6069C33.3277 34.2183 34.2947 33.625 35.1022 32.8649C35.9097 32.1048 36.5401 31.1947 36.953 30.1925C37.4214 29.0189 37.6726 27.7816 37.6993 26.5275C37.7759 24.9147 37.7991 24.4033 37.7991 20.3075C37.7991 16.2116 37.7991 15.6919 37.6993 14.0874C37.6786 12.8171 37.4249 11.5596 36.9494 10.3705ZM34.7798 26.3515C34.7684 27.3177 34.581 28.2749 34.2259 29.1815C33.9584 29.8335 33.5489 30.4256 33.0237 30.9196C32.4985 31.4136 31.8692 31.7987 31.1764 32.0501C30.2238 32.3828 29.2176 32.5592 28.2017 32.5716C26.5095 32.6453 26.0321 32.6638 21.693 32.6638C17.3503 32.6638 16.9068 32.6638 15.1825 32.5716C14.1671 32.5599 13.1614 32.3835 12.2096 32.0501C11.5144 31.8003 10.8826 31.4159 10.3551 30.9217C9.8277 30.4276 9.41633 29.8348 9.14766 29.1815C8.79754 28.2847 8.61027 27.3387 8.59369 26.3834C8.51709 24.7906 8.49928 24.3413 8.49928 20.2572C8.49928 16.1714 8.49928 15.7539 8.59369 14.1293C8.6052 13.1637 8.79257 12.207 9.14766 11.301C9.69094 9.97818 10.8042 8.93703 12.2096 8.43071C13.1619 8.09898 14.1673 7.92265 15.1825 7.9093C16.8765 7.83721 17.3521 7.81709 21.693 7.81709C26.0339 7.81709 26.4792 7.81709 28.2017 7.9093C29.2177 7.9208 30.224 8.09719 31.1764 8.43071C31.8692 8.68265 32.4983 9.06814 33.0235 9.56244C33.5486 10.0567 33.9582 10.6489 34.2259 11.301C34.576 12.1979 34.7633 13.1438 34.7798 14.0992C34.8564 15.6936 34.876 16.1412 34.876 20.227C34.876 24.3111 34.876 24.7504 34.7994 26.3532H34.7798V26.3515Z" fill="white"/>
</svg>
