<svg width="43" height="41" viewBox="0 0 43 41" fill="none" xmlns="http://www.w3.org/2000/svg">
<path d="M33.8628 8.46583C31.4537 6.13808 28.3847 4.55316 25.0438 3.91149C21.7029 3.26981 18.2402 3.6002 15.0935 4.86088C11.9469 6.12155 9.2576 8.25589 7.36577 10.994C5.47394 13.7321 4.46452 16.951 4.46516 20.2437C4.46516 24.6599 6.27937 28.8953 9.50894 32.0188C12.7385 35.1423 17.1191 36.8981 21.6875 36.9004C23.9482 36.9013 26.1873 36.4741 28.2781 35.6429C30.3623 34.7925 32.2582 33.5631 33.8628 32.0216C35.463 30.475 36.7324 28.6388 37.5984 26.6179C38.4645 24.5971 38.9102 22.4311 38.9102 20.2437C38.9102 18.0563 38.4645 15.8903 37.5984 13.8694C36.7324 11.8486 35.463 10.0124 33.8628 8.46583ZM32.6488 30.8312C30.1687 33.2389 26.9145 34.7585 23.4219 35.14V24.1417H26.6825C27.1425 24.1417 27.5836 23.9651 27.9089 23.6506C28.2341 23.3362 28.4169 22.9098 28.4169 22.4651C28.4169 22.0205 28.2341 21.594 27.9089 21.2796C27.5836 20.9652 27.1425 20.7886 26.6825 20.7886H23.4219V16.1948C23.4219 15.7501 23.6046 15.3237 23.9299 15.0093C24.2551 14.6949 24.6963 14.5182 25.1563 14.5182H27.2375C27.6975 14.5182 28.1386 14.3416 28.4639 14.0272C28.7891 13.7128 28.9719 13.2863 28.9719 12.8417C28.9719 12.397 28.7891 11.9706 28.4639 11.6562C28.1386 11.3417 27.6975 11.1651 27.2375 11.1651H24.2891C23.1391 11.1651 22.0362 11.6067 21.2231 12.3927C20.4099 13.1788 19.9531 14.2449 19.9531 15.3565V20.7886H16.7098C16.2499 20.7886 15.8087 20.9652 15.4835 21.2796C15.1582 21.594 14.9755 22.0205 14.9755 22.4651C14.9755 22.9098 15.1582 23.3362 15.4835 23.6506C15.8087 23.9651 16.2499 24.1417 16.7098 24.1417H19.9531V35.14C16.7322 34.7847 13.7081 33.4603 11.308 31.3537C8.90796 29.2471 7.25319 26.4649 6.57745 23.4C5.90172 20.335 6.23918 17.1424 7.54217 14.2729C8.84515 11.4034 11.0478 9.00213 13.839 7.40829C16.6302 5.81444 19.8689 5.10857 23.0976 5.39037C26.3263 5.67217 29.3818 6.9274 31.8325 8.97876C34.2832 11.0301 36.0053 13.7739 36.7555 16.8226C37.5058 19.8713 37.2462 23.0708 36.0134 25.9692C35.2283 27.7852 34.0856 29.4365 32.6488 30.8312Z" fill="white"/>
</svg>
