<svg width="24" height="26" viewBox="0 0 24 26" fill="none" xmlns="http://www.w3.org/2000/svg">
<path d="M9.965 12.0856C10.0212 11.6715 10.145 11.3076 10.3025 11.0064C10.64 10.3037 11.2137 9.93981 11.99 9.92727C12.4963 9.92727 12.9575 10.1782 13.2837 10.5421C13.5988 10.9311 13.8125 11.4707 13.8125 12.0103H15.8375C15.815 11.4205 15.7137 10.8809 15.5 10.379C15.3313 9.90217 15.0725 9.47553 14.735 9.12417C13.1037 7.4427 10.0775 7.68112 8.69375 9.58846C7.2425 11.684 7.20875 15.3481 8.6825 17.4437C10.0437 19.3134 13.025 19.5769 14.645 17.908C14.9937 17.5943 15.275 17.2053 15.5 16.7535C15.68 16.3018 15.8038 15.825 15.815 15.3105H13.8125C13.8125 15.574 13.7338 15.8124 13.6325 16.0257C13.5312 16.2642 13.3962 16.4524 13.25 16.6155C12.8787 16.9418 12.44 17.1174 11.9675 17.1174C11.5625 17.1049 11.225 17.0171 10.9663 16.8288C10.6746 16.6459 10.4423 16.3648 10.3025 16.0257C9.74 14.8964 9.83 13.3279 9.965 12.0856ZM12.125 0.967773C5.9375 0.967773 0.875 6.61451 0.875 13.5161C1.47125 30.1677 22.8125 30.1551 23.375 13.5161C23.375 6.61451 18.3125 0.967773 12.125 0.967773ZM12.125 23.5547C7.16375 23.5547 3.125 19.0499 3.125 13.5161C3.62 0.202327 20.63 0.202327 21.125 13.5161C21.125 19.0499 17.0863 23.5547 12.125 23.5547Z" fill="white"/>
</svg>
