<svg width="36" height="37" viewBox="0 0 36 37" fill="none" xmlns="http://www.w3.org/2000/svg">
<g clip-path="url(#clip0_11_112)">
<path d="M21.9544 13.7914C21.1916 13.7914 20.6269 13.9832 20.1847 14.2254C20.1139 13.9742 19.881 13.7903 19.6065 13.8453H16.2495C15.9176 13.7903 15.6487 14.0583 15.7511 14.406V26.7423C15.6487 27.0564 15.9176 27.3255 16.2495 27.3031H19.6065C19.9384 27.3255 20.2072 27.0564 20.2072 26.7255L20.2061 19.2699C20.205 19.2665 20.1926 18.9099 20.4187 18.6643C20.5999 18.4691 20.9115 18.3693 21.3424 18.3693C22.0601 18.3693 22.3796 18.662 22.4989 19.317V26.7255C22.3807 27.0564 22.6496 27.3255 22.9815 27.3031H26.5196C26.8515 27.3255 27.1204 27.0564 27.0011 26.7255V19.068C27.1192 15.1742 24.3371 13.7914 21.9544 13.7914ZM25.9177 26.1816H23.5822V19.317C23.5822 17.9925 22.7239 17.1716 21.3435 17.1716C20.5627 17.1716 19.9552 17.4004 19.5367 17.8512C18.9551 18.4792 19.0001 19.2755 19.125 19.4527V26.1816H16.8502V14.9892H19.0057V15.366C19.0049 15.4783 19.0358 15.5885 19.0949 15.684C19.154 15.7795 19.239 15.8565 19.3401 15.906C19.4411 15.9556 19.5541 15.9757 19.6661 15.9641C19.7781 15.9525 19.8846 15.9096 19.9732 15.8404L20.1307 15.7193C20.5864 15.3615 21.0577 14.9903 21.9555 14.9903C22.8847 14.9903 25.9189 15.2853 25.9189 19.0691L25.9177 26.1816ZM12.375 8.19971C11.1127 8.19971 10.0867 9.2225 10.0867 10.4808C10.0867 11.7391 11.1127 12.7619 12.375 12.7619C13.6372 12.7619 14.6632 11.7391 14.6632 10.4808C14.6632 9.2225 13.6372 8.19971 12.375 8.19971ZM12.375 11.5642C11.7765 11.5642 11.2882 11.0774 11.2882 10.4808C11.2882 9.88418 11.7765 9.39745 12.375 9.39745C12.9735 9.39745 13.4617 9.88418 13.4617 10.4808C13.4617 11.0774 12.9735 11.5642 12.375 11.5642ZM13.9815 13.7903H10.6425C10.3106 13.7903 10.0417 14.0583 10.125 14.406V26.7423C10.0417 27.0564 10.3106 27.3255 10.6425 27.3031H13.9815C14.3134 27.3255 14.5822 27.0564 14.5822 26.7255V14.3892C14.5822 14.2304 14.5189 14.078 14.4063 13.9657C14.2936 13.8534 14.1408 13.7903 13.9815 13.7903ZM13.5 26.1816H11.2432V14.9892H13.5V26.1816Z" fill="white"/>
<path d="M18.0003 0.349609C8.05305 0.349609 -0.0379486 8.41533 -0.0379486 18.3315C-0.0379486 28.2477 8.05305 36.3134 18.0003 36.3134C27.9476 36.3134 36.0386 28.2477 36.0386 18.3315C36.0386 8.41533 27.9476 0.349609 18.0003 0.349609ZM18.0003 35.1157C8.7168 35.1157 1.16355 27.586 1.16355 18.3315C1.16355 9.07701 8.7168 1.54736 18.0003 1.54736C27.2838 1.54736 34.8371 9.07701 34.8371 18.3315C34.8371 27.586 27.2838 35.1157 18.0003 35.1157Z" fill="white"/>
</g>
<defs>
<clipPath id="clip0_11_112">
<rect width="36" height="35.8875" fill="white" transform="translate(-3.05176e-05 0.387451)"/>
</clipPath>
</defs>
</svg>
