<svg width="38" height="37" viewBox="0 0 38 37" fill="none" xmlns="http://www.w3.org/2000/svg">
<g clip-path="url(#clip0_11_108)">
<path d="M18.5629 0.349609C8.30591 0.349609 -0.0402527 8.41533 -0.0402527 18.3315C-0.0402527 28.2477 8.30591 36.3134 18.5629 36.3134C28.8198 36.3134 37.166 28.2477 37.166 18.3315C37.166 8.41533 28.8198 0.349609 18.5629 0.349609ZM18.5629 35.1157C8.98924 35.1157 1.20111 27.586 1.20111 18.3315C1.20111 9.07701 8.98924 1.54736 18.5629 1.54736C28.1365 1.54736 35.9246 9.07701 35.9246 18.3315C35.9246 27.586 28.1365 35.1157 18.5629 35.1157Z" fill="white"/>
<path d="M28.7649 12.7754C28.8936 12.5451 28.9996 12.3037 29.0816 12.0542C29.1196 11.9386 29.1204 11.8145 29.0838 11.6983C29.0473 11.5822 28.9752 11.4795 28.8771 11.4038C28.7789 11.3281 28.6593 11.283 28.5341 11.2744C28.4088 11.2658 28.2838 11.2941 28.1756 11.3556C27.5811 11.697 26.9376 11.9513 26.2659 12.1103C25.4507 11.399 24.3918 11.0047 23.2936 11.0034C22.697 11.0039 22.1066 11.1208 21.5578 11.3471C21.009 11.5735 20.5131 11.9046 20.0999 12.3207C19.6868 12.7367 19.3647 13.2292 19.1532 13.7685C18.9416 14.3078 18.8449 14.8828 18.8688 15.4591C16.2596 15.1416 13.877 13.8653 12.2153 11.895C12.1516 11.8204 12.0703 11.7617 11.9781 11.7239C11.8859 11.6862 11.7857 11.6705 11.686 11.6782C11.5862 11.6859 11.4898 11.7168 11.4051 11.7682C11.3203 11.8196 11.2496 11.89 11.199 11.9735C10.8185 12.6048 10.6117 13.3198 10.5983 14.0504C10.5849 14.7809 10.7653 15.5026 11.1224 16.1465C11.0348 16.1608 10.9507 16.1905 10.8741 16.234C10.7803 16.2918 10.7031 16.3716 10.6496 16.4658C10.5961 16.5601 10.568 16.6659 10.5679 16.7735C10.5679 18.0463 11.1537 19.2149 12.0981 20.0089L12.0575 20.0482C11.9862 20.1262 11.9372 20.2207 11.9152 20.3226C11.8932 20.4245 11.8991 20.5301 11.9322 20.6291C12.1291 21.223 12.4579 21.7681 12.8956 22.2262C13.3333 22.6844 13.8692 23.0445 14.466 23.2814C13.2404 23.8594 11.8688 24.0848 10.5145 23.9308C10.3753 23.9171 10.2353 23.9484 10.1165 24.0198C9.99764 24.0913 9.90668 24.1988 9.85785 24.3255C9.81095 24.4532 9.81007 24.5925 9.85535 24.7208C9.90063 24.849 9.9894 24.9587 10.1073 25.0321C11.9485 26.1744 14.0904 26.7812 16.2782 26.7805C23.4479 26.7805 27.7335 21.1506 27.7335 15.708L27.7324 15.5241C28.4272 14.9997 29.0308 14.3712 29.5202 13.6625C29.5943 13.5553 29.6307 13.4279 29.6241 13.2992C29.6175 13.1705 29.5682 13.0472 29.4834 12.9477C29.3987 12.8482 29.2831 12.7777 29.1537 12.7466C29.0243 12.7156 28.8879 12.7257 28.7649 12.7754ZM26.7404 14.7436C26.6563 14.8021 26.5886 14.8801 26.5436 14.9704C26.4986 15.0607 26.4777 15.1605 26.4829 15.2606C26.4899 15.4086 26.4933 15.5589 26.4933 15.7069C26.4933 20.5607 22.6729 25.5816 16.2793 25.5816C15.139 25.5821 14.0067 25.3971 12.9299 25.0343C14.2196 24.7954 15.431 24.2608 16.4626 23.4755C16.563 23.3989 16.6365 23.2943 16.6731 23.1758C16.7097 23.0574 16.7075 22.9309 16.6668 22.8137C16.6262 22.6965 16.5491 22.5942 16.4461 22.521C16.3431 22.4477 16.2192 22.407 16.0914 22.4044C15.5911 22.3952 15.1002 22.2725 14.658 22.0461C14.2159 21.8197 13.835 21.4961 13.546 21.1013C13.8395 21.0822 14.1272 21.0351 14.4068 20.9622C14.5421 20.9272 14.6612 20.8489 14.7445 20.7401C14.8279 20.6312 14.8706 20.4983 14.8658 20.363C14.861 20.2276 14.8088 20.0979 14.7179 19.9949C14.6269 19.8919 14.5026 19.8217 14.3651 19.7959C13.8001 19.6848 13.277 19.4273 12.8517 19.051C12.4265 18.6747 12.115 18.1937 11.9508 17.6594C12.2594 17.7346 12.5761 17.7783 12.8928 17.7884C13.1655 17.7873 13.4184 17.6258 13.5031 17.3723C13.5878 17.1189 13.488 16.8396 13.2571 16.6916C12.7112 16.34 12.2909 15.8341 12.0536 15.243C11.8162 14.6519 11.7734 14.0043 11.931 13.3888C13.9463 15.3877 16.6674 16.5779 19.551 16.7219C19.7551 16.723 19.9338 16.6523 20.0579 16.5077C20.1821 16.363 20.2296 16.1712 20.1856 15.9873C20.0269 15.3267 20.0979 14.634 20.3875 14.0164C20.6771 13.3988 21.1693 12.8906 21.7878 12.5706C22.4062 12.2506 23.1166 12.1366 23.8089 12.2462C24.5012 12.3558 25.1368 12.6829 25.6174 13.1769C25.6894 13.2511 25.7798 13.3065 25.8801 13.3377C25.9804 13.3689 26.0872 13.3749 26.1905 13.3552C26.382 13.3182 26.5711 13.2755 26.7578 13.2262C26.6736 13.2871 26.5861 13.3437 26.4957 13.3955C26.3753 13.4668 26.2837 13.5755 26.2359 13.7038C26.1881 13.8321 26.1869 13.9724 26.2326 14.1014C26.2783 14.2304 26.368 14.3406 26.4871 14.4137C26.6062 14.4868 26.7476 14.5185 26.8878 14.5036L27.0989 14.4778C26.9827 14.5704 26.8631 14.659 26.7404 14.7436Z" fill="white"/>
</g>
<defs>
<clipPath id="clip0_11_108">
<rect width="37.125" height="35.8875" fill="white" transform="translate(0 0.387451)"/>
</clipPath>
</defs>
</svg>
