<svg width="55" height="52" viewBox="0 0 55 52" fill="none" xmlns="http://www.w3.org/2000/svg">
<path opacity="0.926" fill-rule="evenodd" clip-rule="evenodd" d="M26.5434 0.400635C33.5607 0.412893 38.609 3.55064 41.6883 9.81384C43.9467 15.7744 43.0904 21.2298 39.1196 26.18C34.0287 31.391 28.0528 32.7281 21.1918 30.1913C14.7731 27.0092 11.6869 21.8212 11.9336 14.6274C12.8338 7.71093 16.5976 3.16478 23.2254 0.98896C24.3318 0.706724 25.4378 0.510609 26.5434 0.400635ZM26.5434 2.11213C32.1719 2.08046 36.4711 4.43376 39.4407 9.17203C42.2328 14.8007 41.6976 20.0778 37.8352 25.0033C33.9328 29.1317 29.2056 30.5401 23.6535 29.2286C18.7725 27.6664 15.5793 24.4395 14.0742 19.5479C12.8019 13.9503 14.2824 9.22589 18.516 5.37466C20.8568 3.45989 23.5326 2.37238 26.5434 2.11213Z" fill="#014751"/>
<path opacity="0.925" fill-rule="evenodd" clip-rule="evenodd" d="M27.2927 4.0376C33.0436 4.33365 36.8788 7.18614 38.7985 12.5951C39.7539 16.1618 39.2366 19.4956 37.2466 22.5966C36.4371 22.9889 35.9376 22.7571 35.7482 21.9013C38.3389 17.5843 38.1427 13.4125 35.1595 9.38601C31.9045 5.93979 28.0336 4.99491 23.5466 6.55135C22.9231 6.84501 22.3166 7.16592 21.7271 7.51407C20.7599 7.5626 20.421 7.11689 20.7103 6.17696C22.7076 4.8281 24.9017 4.11499 27.2927 4.0376Z" fill="#014751"/>
<path opacity="0.933" fill-rule="evenodd" clip-rule="evenodd" d="M27.1857 7.78142C27.5333 7.77234 27.8366 7.87931 28.0955 8.10232C28.2056 8.52254 28.2949 8.95042 28.3631 9.38594C28.9693 9.52831 29.5401 9.76011 30.0756 10.0812C30.8676 10.8658 30.7427 11.4542 29.701 11.8462C29.2537 11.5609 28.7721 11.347 28.2561 11.2044C28.2205 12.4188 28.2562 13.6311 28.3631 14.8413C30.6606 15.4756 31.6418 16.9732 31.3064 19.334C30.8686 20.9305 29.8518 21.9289 28.2561 22.3291C28.2737 22.723 28.2559 23.1151 28.2025 23.5057C27.9419 24.0111 27.5316 24.1715 26.9717 23.9871C26.8825 23.898 26.7933 23.8088 26.7041 23.7197C26.5592 23.3065 26.5057 22.8786 26.5436 22.4361C25.4598 22.3665 24.5143 21.9743 23.7072 21.2594C23.3861 20.5268 23.618 20.0633 24.4029 19.8688C25.057 20.2581 25.7527 20.5434 26.49 20.7246C26.5614 19.1557 26.5614 17.5869 26.49 16.018C23.8921 14.9318 23.2499 13.1491 24.5635 10.6696C25.0696 10.0156 25.7297 9.62341 26.5436 9.49291C26.5259 9.09908 26.5437 8.70686 26.5971 8.31626C26.7156 8.03675 26.9117 7.85846 27.1857 7.78142ZM26.3295 11.3114C26.0734 11.5505 25.8771 11.8358 25.7408 12.1671C25.4337 12.9794 25.6656 13.5856 26.4365 13.9856C26.4722 13.5398 26.5079 13.0942 26.5436 12.6485C26.5426 12.161 26.4713 11.7153 26.3295 11.3114ZM28.2561 16.6598C28.2205 17.9453 28.2562 19.2289 28.3631 20.5106C28.7885 20.2815 29.1275 19.9606 29.3799 19.5479C29.98 18.1901 29.6054 17.2274 28.2561 16.6598Z" fill="#014751"/>
<path opacity="0.923" fill-rule="evenodd" clip-rule="evenodd" d="M18.3025 8.42322C19.4343 8.47392 19.7375 9.00876 19.2123 10.0277C16.7851 13.6142 16.6067 17.3224 18.6771 21.1524C21.2263 24.9303 24.7761 26.517 29.3267 25.9125C30.2122 25.7126 31.0685 25.4273 31.8955 25.0568C32.5956 24.618 33.3092 24.2079 34.0361 23.8266C34.762 23.9569 35.0296 24.3848 34.8388 25.1103C33.0652 26.611 31.0138 27.4846 28.6845 27.731C22.7096 28.0301 18.5532 25.445 16.2154 19.9758C15.025 16.3012 15.4174 12.8069 17.3928 9.4929C17.6736 9.10453 17.9769 8.74797 18.3025 8.42322Z" fill="#014751"/>
<path opacity="0.938" fill-rule="evenodd" clip-rule="evenodd" d="M54.8 37.3047C54.8 37.8752 54.8 38.4457 54.8 39.0162C54.5973 39.6873 54.2404 40.2756 53.7297 40.7812C49.3422 43.687 44.9181 46.5395 40.4578 49.3386C39.9077 49.5813 39.3369 49.7595 38.7453 49.8735C32.3808 50.536 26.0124 51.16 19.6402 51.7454C18.7423 51.7113 17.8683 51.5508 17.018 51.264C14.1281 49.9626 11.2383 48.6612 8.34844 47.3597C8.5467 48.6553 8.11858 49.6715 7.06406 50.4083C6.85 50.4796 6.63594 50.5509 6.42188 50.6222C4.88776 50.6936 3.35364 50.6936 1.81953 50.6222C0.96347 50.3902 0.356959 49.8731 0 49.0712C0 42.4392 0 35.8071 0 29.1751C0.343837 28.4221 0.914671 27.905 1.7125 27.6241C3.31797 27.5527 4.92344 27.5527 6.52891 27.6241C7.81932 28.0818 8.39016 28.991 8.24141 30.3518C12.5597 29.9421 16.5198 30.9226 20.1219 33.2934C20.836 33.6976 21.5852 34.0185 22.3695 34.2561C25.5358 34.7107 28.711 35.103 31.8953 35.4327C34.5739 35.8277 36.108 37.361 36.4977 40.0324C36.4668 40.2663 36.4311 40.4981 36.3906 40.7277C37.8255 40.5728 39.2169 40.234 40.5648 39.7115C43.7533 38.1717 46.9286 36.6028 50.0906 35.0049C52.3611 34.3745 53.9308 35.1412 54.8 37.3047ZM2.03359 29.2821C3.42546 29.2642 4.81687 29.2821 6.20781 29.3356C6.297 29.4247 6.3862 29.5139 6.47539 29.603C6.51106 33.1686 6.54675 36.7342 6.58242 40.2998C6.65378 40.799 6.93919 41.0842 7.43867 41.1555C7.74168 41.1066 7.99141 40.9639 8.18789 40.7277C8.24141 37.8397 8.25924 34.9516 8.24141 32.0632C11.2154 31.775 14.0696 32.2207 16.8039 33.4004C18.1069 34.1407 19.4269 34.8538 20.7641 35.5397C21.2214 35.7039 21.6852 35.8466 22.1555 35.9676C25.541 36.4218 28.9303 36.8496 32.3234 37.2512C34.0367 37.842 34.8215 39.0364 34.6781 40.8346C30.8603 41.0531 27.0428 41.2849 23.2258 41.5299C22.4591 41.9572 22.3877 42.492 23.0117 43.1345C27.1167 42.9962 31.2195 42.7822 35.3203 42.4927C37.5491 42.4349 39.6898 41.9714 41.7422 41.1021C44.7391 39.6045 47.7359 38.107 50.7328 36.6094C51.8003 36.2639 52.5673 36.6027 53.034 37.6256C53.2041 38.3423 53.0435 38.9663 52.5523 39.4975C48.5276 42.0584 44.5317 44.6612 40.5648 47.3062C39.9262 47.6787 39.2483 47.964 38.5313 48.162C32.0793 48.8603 25.6218 49.4664 19.1586 49.9804C18.571 49.9049 18.0002 49.7623 17.4461 49.5526C14.4225 48.1768 11.3899 46.822 8.34844 45.4878C8.2617 44.8726 8.20818 44.2486 8.18789 43.6158C8.03881 43.3092 7.78907 43.1667 7.43867 43.1879C6.91744 43.1743 6.63202 43.4239 6.58242 43.9367C6.54675 45.5056 6.51106 47.0744 6.47539 48.6433C6.3788 48.7718 6.25392 48.861 6.10078 48.9107C4.78073 48.9821 3.46067 48.9821 2.14062 48.9107C1.86214 48.8107 1.70159 48.6147 1.65898 48.3224C1.58763 42.1896 1.58763 36.0567 1.65898 29.9239C1.71932 29.6686 1.84419 29.4546 2.03359 29.2821Z" fill="#014751"/>
</svg>
