<svg width="190" height="79" viewBox="0 0 190 79" fill="none" xmlns="http://www.w3.org/2000/svg">
<path d="M0 5.98822C0 3.2268 2.23858 0.98822 5 0.98822H184.124C186.886 0.98822 189.124 3.2268 189.124 5.98822V73.7802C189.124 76.5416 186.886 78.7802 184.124 78.7802H4.99999C2.23857 78.7802 0 76.5416 0 73.7802V5.98822Z" fill="#0E2D4F" fill-opacity="0.76"/>
<path d="M0.5 5.98822C0.5 3.50294 2.51472 1.48822 5 1.48822H184.124C186.61 1.48822 188.624 3.50294 188.624 5.98822V73.7802C188.624 76.2655 186.61 78.2802 184.124 78.2802H4.99999C2.51471 78.2802 0.5 76.2655 0.5 73.7802V5.98822Z" stroke="#0E2D4F" stroke-opacity="0.76"/>
</svg>
